<?xml version="1.0" standalone="no"?>
<!DOCTYPE svg PUBLIC "-//W3C//DTD SVG 20010904//EN"
 "http://www.w3.org/TR/2001/REC-SVG-20010904/DTD/svg10.dtd">
<svg version="1.0" xmlns="http://www.w3.org/2000/svg"
 width="301.000000pt" height="301.000000pt" viewBox="0 0 301.000000 301.000000"
 preserveAspectRatio="xMidYMid meet">

<g transform="translate(0.000000,301.000000) scale(0.100000,-0.100000)"
fill="#858070" stroke="none">
<path d="M270 2894 c-13 -33 -13 -90 1 -189 17 -135 60 -343 78 -390 5 -11 16
-45 26 -75 61 -185 176 -352 326 -471 114 -90 134 -102 374 -215 60 -28 95
-58 95 -83 0 -10 -24 -51 -52 -91 -29 -40 -66 -92 -82 -114 -50 -69 -140 -256
-171 -351 -15 -49 -41 -110 -58 -135 -25 -37 -117 -152 -137 -170 -3 -3 -18
-21 -34 -40 -56 -68 -162 -185 -266 -293 -103 -107 -160 -180 -160 -204 0 -7
11 -13 25 -13 14 0 25 5 25 10 0 6 6 10 13 10 31 0 290 221 452 386 59 59 105
92 105 74 0 -6 -7 -36 -16 -66 -8 -30 -14 -59 -12 -66 2 -6 49 40 104 103 186
215 357 332 539 369 128 27 212 66 307 145 119 97 200 221 247 375 57 183 52
171 111 292 78 160 188 266 360 350 119 57 131 61 315 108 28 8 59 20 70 28
18 13 12 14 -55 8 -41 -3 -106 -13 -145 -21 -38 -8 -90 -19 -115 -24 -25 -5
-65 -16 -90 -24 -98 -33 -107 -32 -146 8 -63 66 -138 81 -245 49 -63 -19 -93
-38 -187 -121 -34 -29 -38 -30 -54 -16 -19 17 -71 136 -95 216 -8 29 -19 60
-24 69 -5 10 -9 28 -9 40 0 41 -79 235 -152 373 -11 22 -29 57 -40 78 -10 20
-25 37 -32 37 -35 0 -101 -227 -139 -482 -20 -128 -3 -238 45 -290 50 -54 60
-68 51 -68 -9 0 -31 16 -103 73 -104 82 -169 135 -190 154 -13 13 -85 64 -160
114 -250 170 -361 262 -542 448 -65 67 -125 121 -133 121 -9 0 -20 -12 -25
-26z"/>
</g>
</svg>
