<?xml version="1.0" standalone="no"?>
<!DOCTYPE svg PUBLIC "-//W3C//DTD SVG 20010904//EN"
 "http://www.w3.org/TR/2001/REC-SVG-20010904/DTD/svg10.dtd">
<svg version="1.0" xmlns="http://www.w3.org/2000/svg"
 width="550.000000pt" height="512.000000pt" viewBox="0 0 550.000000 512.000000"
 preserveAspectRatio="xMidYMid meet">

<g transform="translate(0.000000,512.000000) scale(0.100000,-0.100000)"
fill="#858070" stroke="none">
<path d="M1775 4911 c-87 -22 -159 -94 -215 -214 -122 -261 -141 -297 -202
-374 -36 -45 -68 -93 -72 -108 -4 -14 -2 -54 4 -87 15 -79 2 -153 -51 -301
-61 -173 -121 -288 -192 -368 -102 -116 -101 -114 -102 -264 0 -126 -2 -134
-42 -253 -53 -152 -137 -332 -191 -403 -67 -91 -75 -112 -67 -189 8 -81 -11
-162 -81 -342 -58 -151 -125 -279 -208 -401 -69 -102 -75 -122 -57 -199 10
-42 -11 -257 -29 -303 -21 -52 -15 -220 10 -300 76 -240 259 -439 500 -545
143 -63 77 -61 1720 -58 l1495 3 65 22 c163 56 319 187 390 327 30 60 105 294
289 901 137 451 331 1090 431 1420 100 330 187 628 193 663 26 157 -53 326
-188 403 -27 16 -53 29 -56 29 -3 0 -9 -35 -12 -77 -5 -62 -42 -196 -175 -633
-94 -305 -268 -877 -387 -1270 -342 -1126 -373 -1227 -389 -1258 -20 -39 -80
-90 -135 -116 l-46 -21 -1535 0 c-1463 0 -1538 1 -1595 18 -120 38 -190 91
-226 174 -40 94 -16 172 59 193 25 6 508 10 1437 10 1528 0 1492 -1 1612 57
70 35 107 78 165 195 71 143 67 131 498 1558 54 179 179 593 278 920 213 702
212 700 212 782 0 122 -43 220 -135 307 -58 55 -110 82 -193 100 -81 17 -2433
15 -2524 -3 -37 -7 -73 -9 -80 -5 -21 11 -140 19 -173 10z m2332 -781 c51 -18
56 -47 27 -147 -34 -120 -72 -193 -113 -220 l-34 -23 -959 0 c-657 0 -966 3
-979 11 -42 22 -42 52 2 185 22 68 50 136 62 150 48 54 25 53 1033 54 625 0
941 -3 961 -10z m-233 -801 c16 -13 26 -30 26 -47 0 -45 -70 -241 -98 -274
-51 -61 -4 -58 -1040 -58 -945 0 -949 0 -976 21 -35 27 -33 51 11 184 44 133
53 148 106 174 42 21 51 21 993 21 947 0 951 0 978 -21z"/>
</g>
</svg>
