<?xml version="1.0" standalone="no"?>
<!DOCTYPE svg PUBLIC "-//W3C//DTD SVG 20010904//EN"
 "http://www.w3.org/TR/2001/REC-SVG-20010904/DTD/svg10.dtd">
<svg version="1.0" xmlns="http://www.w3.org/2000/svg"
 width="225.000000pt" height="225.000000pt" viewBox="0 0 225.000000 225.000000"
 preserveAspectRatio="xMidYMid meet">

<g transform="translate(0.000000,225.000000) scale(0.100000,-0.100000)"
fill="#C2B89C" stroke="none">
<path d="M993 2100 c-105 -15 -183 -40 -298 -95 -205 -100 -349 -243 -450
-450 -76 -156 -99 -255 -99 -430 0 -175 23 -274 99 -430 101 -206 244 -350
450 -450 156 -76 255 -99 430 -99 168 0 269 22 414 90 217 102 373 258 475
475 68 145 90 246 90 414 0 175 -23 274 -99 430 -101 206 -244 350 -450 450
-60 29 -148 63 -195 74 -97 24 -274 34 -367 21z m337 -155 c93 -24 255 -105
328 -165 92 -76 167 -172 222 -285 68 -141 84 -212 84 -370 0 -158 -16 -229
-84 -370 -85 -177 -208 -299 -385 -385 -141 -68 -212 -84 -370 -84 -158 0
-229 16 -370 84 -177 86 -300 208 -385 385 -68 141 -84 212 -84 370 0 158 16
229 84 370 118 242 326 403 600 461 83 17 272 12 360 -11z"/>
<path d="M1650 1663 c-124 -44 -403 -161 -521 -220 -203 -100 -224 -121 -328
-335 -73 -150 -156 -345 -201 -475 l-19 -52 82 30 c303 112 589 250 657 319
53 52 145 226 233 440 54 130 119 301 114 299 -1 0 -9 -3 -17 -6z m-483 -403
c25 0 83 -62 93 -99 19 -72 -26 -150 -100 -171 -98 -28 -197 70 -170 170 17
62 92 116 145 105 11 -3 25 -5 32 -5z"/>
</g>
</svg>
