<?xml version="1.0" standalone="no"?>
<!DOCTYPE svg PUBLIC "-//W3C//DTD SVG 20010904//EN"
 "http://www.w3.org/TR/2001/REC-SVG-20010904/DTD/svg10.dtd">
<svg version="1.0" xmlns="http://www.w3.org/2000/svg"
 width="512.000000pt" height="512.000000pt" viewBox="0 0 512.000000 512.000000"
 preserveAspectRatio="xMidYMid meet">

<g transform="translate(0.000000,512.000000) scale(0.100000,-0.100000)"
fill="#858070" stroke="none">
<path d="M4925 4992 c-505 -316 -980 -664 -1350 -991 -574 -507 -1134 -1211
-1514 -1900 l-51 -94 208 6 c135 5 230 3 268 -4 76 -14 149 -54 175 -96 29
-47 57 -58 215 -88 261 -48 378 -44 503 20 67 33 249 172 398 303 118 103 122
107 95 114 -15 4 -67 16 -116 28 -48 11 -133 39 -189 61 -105 41 -247 115
-247 128 0 4 26 8 58 9 182 6 410 45 725 124 l168 42 78 106 c43 58 96 132
118 165 97 145 220 361 210 371 -2 2 -30 -1 -63 -7 -70 -13 -302 -17 -394 -6
-77 9 -210 36 -228 46 -7 4 8 14 40 25 160 57 337 140 550 259 135 76 276 163
299 186 16 16 80 234 118 401 54 235 87 498 90 706 2 132 -3 175 -18 173 -3 0
-69 -39 -146 -87z"/>
<path d="M1382 1949 c-77 -22 -143 -132 -127 -210 12 -57 50 -113 97 -139 38
-22 57 -25 171 -28 l127 -4 0 -119 0 -119 -380 0 c-236 0 -398 -4 -430 -11
-64 -14 -127 -61 -160 -119 l-25 -45 0 -490 c0 -483 0 -491 22 -530 28 -52 68
-89 123 -114 44 -20 60 -21 1160 -21 738 0 1128 4 1152 10 56 16 119 69 147
125 l26 49 0 476 0 475 -28 58 c-33 65 -89 110 -158 126 -25 6 -206 11 -426
11 l-383 0 0 119 0 119 128 4 c147 4 194 21 237 86 71 108 18 258 -102 291
-49 14 -1124 13 -1171 0z"/>
</g>
</svg>
