<?xml version="1.0" standalone="no"?>
<!DOCTYPE svg PUBLIC "-//W3C//DTD SVG 20010904//EN"
 "http://www.w3.org/TR/2001/REC-SVG-20010904/DTD/svg10.dtd">
<svg version="1.0" xmlns="http://www.w3.org/2000/svg"
 width="420.000000pt" height="427.000000pt" viewBox="0 0 420.000000 427.000000"
 preserveAspectRatio="xMidYMid meet">

<g transform="translate(0.000000,427.000000) scale(0.100000,-0.100000)"
fill="#FFF8DC" stroke="none">
<path d="M1934 4058 c-380 -389 -709 -809 -939 -1198 -365 -618 -613 -1344
-705 -2065 -11 -94 -32 -386 -27 -391 1 -2 83 77 180 174 176 177 178 178 166
208 -30 77 -2 310 57 461 64 165 138 217 339 234 302 25 359 43 455 143 55 57
209 257 243 315 l18 31 -80 0 c-119 0 -265 23 -361 56 -8 3 35 22 95 43 137
46 310 124 444 200 l103 58 30 69 c70 160 158 438 144 452 -3 2 -29 -5 -58
-17 -100 -42 -205 -63 -373 -75 -66 -5 -69 4 -13 41 96 63 239 184 377 319
l136 132 -1 264 c0 193 -5 294 -18 378 -17 120 -50 272 -64 296 -6 11 -43 -21
-148 -128z"/>
<path d="M2267 2589 c-53 -13 -84 -36 -112 -84 -31 -51 -34 -124 -7 -147 9 -8
77 -39 150 -68 72 -28 132 -56 132 -60 0 -14 -109 -161 -177 -240 -36 -41
-171 -184 -301 -318 -363 -376 -464 -502 -497 -625 -21 -78 -8 -126 45 -167
19 -15 339 -173 710 -351 l675 -324 75 0 c82 1 130 19 194 76 42 37 86 121 86
166 0 42 -31 105 -62 125 -13 8 -77 39 -143 68 -66 29 -124 56 -129 61 -17 15
134 177 398 428 394 375 500 491 562 617 48 99 40 206 -19 262 -18 17 -1195
485 -1413 562 -68 24 -122 30 -167 19z"/>
</g>
</svg>
